<svg xmlns="http://www.w3.org/2000/svg" version="1.1" xmlns:xlink="http://www.w3.org/1999/xlink" xmlns:svgjs="http://svgjs.dev/svgjs" width="1000" height="1000" viewBox="0 0 1000 1000"><rect width="1000" height="1000" fill="#ffffff"></rect><g transform="matrix(0.7,0,0,0.7,149.57575757575756,455.0848014467479)"><svg viewBox="0 0 396 51" data-background-color="#ffffff" preserveAspectRatio="xMidYMid meet" height="128" width="1000" xmlns="http://www.w3.org/2000/svg" xmlns:xlink="http://www.w3.org/1999/xlink"><g id="tight-bounds" transform="matrix(1,0,0,1,0.2400000000000091,0.06557060508765744)"><svg viewBox="0 0 395.52 50.868858789824685" height="50.868858789824685" width="395.52"><g><svg viewBox="0 0 465.6367291576247 59.886754204275526" height="50.868858789824685" width="395.52"><g transform="matrix(1,0,0,1,0,8.276678764845606)"><svg viewBox="0 0 395.52 43.333396674584314" height="43.333396674584314" width="395.52"><g id="textblocktransform"><svg viewBox="0 0 395.52 43.333396674584314" height="43.333396674584314" width="395.52" id="textblock"><g><svg viewBox="0 0 395.52 43.333396674584314" height="43.333396674584314" width="395.52"><g transform="matrix(1,0,0,1,0,0)"><svg width="395.52" viewBox="2.35 -36.4 336.77 36.9" height="43.333396674584314" data-palette-color="#471aa0"><path d="M11.1-36.4Q13.95-36.4 15.8-35.45L15.8-35.45 15.8-32Q14.3-32.65 13.25-32.65L13.25-32.65Q11.25-32.65 10.55-31.93 9.85-31.2 9.85-29.5L9.85-29.5 9.85-25.55 15.8-25.55 15.8-21.8 9.85-21.8 9.85 0 5.15 0 5.15-21.8 2.35-21.8 2.35-25.55 5.15-25.55 5.15-29Q5.15-36.4 11.1-36.4L11.1-36.4ZM31.05-26.05Q34.2-26.05 36.62-24.73 39.05-23.4 40.4-20.95 41.75-18.5 41.75-15.25L41.75-15.25 41.75-11.7 23.9-11.7Q24-7.65 25.8-5.45 27.6-3.25 31.15-3.25L31.15-3.25Q34.3-3.25 35.8-5.1 37.3-6.95 37.3-9.5L37.3-9.5 41.75-9.5Q41.75-6.5 40.37-4.25 39-2 36.57-0.75 34.15 0.5 31.05 0.5L31.05 0.5 30.85 0.5Q25.45 0.5 22.32-2.98 19.2-6.45 19.2-12.25L19.2-12.25 19.2-13.25Q19.2-17.05 20.6-19.95 22-22.85 24.6-24.45 27.2-26.05 30.7-26.05L30.7-26.05 31.05-26.05ZM30.8-22.3Q27.95-22.3 26.17-20.55 24.4-18.8 24-15.35L24-15.35 37.1-15.35 37.1-15.95Q37.1-18.8 35.37-20.55 33.65-22.3 30.8-22.3L30.8-22.3ZM75.55-26.05Q79.5-26.05 81.7-23.75 83.9-21.45 83.9-17.2L83.9-17.2 83.9 0 79.2 0 79.2-16.35Q79.2-22.3 74.6-22.3L74.6-22.3Q73-22.3 71.62-21.35 70.25-20.4 69.42-18.78 68.6-17.15 68.6-15.2L68.6-15.2 68.6 0 63.9 0 63.9-16.35Q63.9-22.3 59.3-22.3L59.3-22.3Q57.7-22.3 56.32-21.35 54.95-20.4 54.12-18.78 53.3-17.15 53.3-15.2L53.3-15.2 53.3 0 48.6 0 48.6-25.55 52-25.55 52.65-21.8Q55.55-26.05 60.7-26.05L60.7-26.05Q65.75-26.05 67.7-21.8L67.7-21.8Q69.4-24.2 71.35-25.13 73.3-26.05 75.55-26.05L75.55-26.05ZM112.79-36L112.79 0 109.29 0Q108.94-1.6 108.64-3.5L108.64-3.5Q105.79 0.5 100.74 0.5L100.74 0.5Q95.94 0.5 93.17-3.05 90.39-6.6 90.39-12.8L90.39-12.8 90.39-13.35Q90.39-19.2 93.12-22.63 95.84-26.05 100.74-26.05L100.74-26.05Q105.49-26.05 108.09-22.3L108.09-22.3 108.09-36 112.79-36ZM101.59-22.3Q98.24-22.3 96.67-19.98 95.09-17.65 95.09-12.75L95.09-12.75Q95.09-7.85 96.69-5.55 98.29-3.25 101.59-3.25L101.59-3.25Q108.14-3.25 108.14-12.75L108.14-12.75Q108.14-17.65 106.49-19.98 104.84-22.3 101.59-22.3L101.59-22.3ZM131.14-26.05Q136.19-26.05 138.67-24.05 141.14-22.05 141.14-18.25L141.14-18.25 141.14-5Q141.14-4.1 141.54-3.68 141.94-3.25 142.54-3.25L142.54-3.25Q143.69-3.25 144.84-3.95L144.84-3.95 144.84-0.5Q143.14 0.5 140.99 0.5L140.99 0.5Q138.84 0.5 137.79-0.73 136.74-1.95 136.64-4.1L136.64-4.1Q133.54 0.5 127.69 0.5L127.69 0.5Q123.49 0.5 121.42-1.33 119.34-3.15 119.34-7.1L119.34-7.1Q119.34-10.2 120.94-11.98 122.54-13.75 126.24-14.55 129.94-15.35 136.44-15.35L136.44-15.35 136.44-17.7Q136.44-20.25 134.94-21.28 133.44-22.3 130.59-22.3L130.59-22.3Q127.89-22.3 126.39-21.25 124.89-20.2 124.89-18.3L124.89-18.3 124.89-17.7 120.29-17.7Q120.19-18.4 120.19-19.35L120.19-19.35Q120.19-21.1 121.59-22.65 122.99-24.2 125.39-25.13 127.79-26.05 130.69-26.05L130.69-26.05 131.14-26.05ZM136.44-11.7Q131.19-11.7 128.52-11.18 125.84-10.65 124.94-9.6 124.04-8.55 124.04-6.7L124.04-6.7Q124.04-3.25 129.29-3.25L129.29-3.25Q131.14-3.25 132.79-4.17 134.44-5.1 135.44-6.8 136.44-8.5 136.44-10.7L136.44-10.7 136.44-11.7ZM160.09-26.05Q162.94-26.05 165.16-25.15 167.39-24.25 168.61-22.65 169.84-21.05 169.84-19.1L169.84-19.1 169.79-18.2 165.14-18.2 165.14-18.65Q165.14-22.3 159.49-22.3L159.49-22.3Q153.89-22.3 153.89-18.95L153.89-18.95Q153.89-17.4 155.49-16.68 157.09-15.95 160.39-15.3L160.39-15.3Q163.54-14.65 165.56-13.95 167.59-13.25 169.01-11.75 170.44-10.25 170.44-7.7L170.44-7.7Q170.44-3.6 167.64-1.55 164.84 0.5 159.59 0.5L159.59 0.5 158.84 0.5Q155.69 0.5 153.34-0.48 150.99-1.45 149.71-3.13 148.44-4.8 148.49-6.9L148.49-6.9 148.49-8 153.14-8 153.14-7.5Q153.14-3.25 160.29-3.25L160.29-3.25Q162.39-3.25 164.06-4.2 165.74-5.15 165.74-6.8L165.74-6.8Q165.74-8.2 164.81-9 163.89-9.8 162.54-10.2 161.19-10.6 158.79-11L158.79-11Q155.69-11.6 153.79-12.23 151.89-12.85 150.54-14.35 149.19-15.85 149.19-18.45L149.19-18.45Q149.19-22 151.99-24.03 154.79-26.05 159.64-26.05L159.64-26.05 160.09-26.05ZM181.74-36L181.74-22.35Q184.89-26.05 189.64-26.05L189.64-26.05Q193.84-26.05 196.24-23.8 198.64-21.55 198.64-17.2L198.64-17.2 198.64 0 193.94 0 193.94-16.35Q193.94-22.3 188.54-22.3L188.54-22.3Q186.74-22.3 185.19-21.35 183.64-20.4 182.69-18.78 181.74-17.15 181.74-15.2L181.74-15.2 181.74 0 177.04 0 177.04-36 181.74-36ZM211.38-36L211.38-22.3Q212.53-23.95 214.51-25 216.48-26.05 218.78-26.05L218.78-26.05Q223.68-26.05 226.38-22.63 229.08-19.2 229.08-13.35L229.08-13.35 229.08-12.8Q229.08-6.6 226.31-3.05 223.53 0.5 218.73 0.5L218.73 0.5Q213.03 0.5 210.13-4.05L210.13-4.05 208.48 0 206.68 0 206.68-36 211.38-36ZM217.83-22.3Q214.48-22.3 212.91-19.98 211.33-17.65 211.33-12.75L211.33-12.75Q211.33-7.85 212.93-5.55 214.53-3.25 217.83-3.25L217.83-3.25Q224.38-3.25 224.38-12.75L224.38-12.75Q224.38-17.65 222.73-19.98 221.08-22.3 217.83-22.3L217.83-22.3ZM246.03-26.05Q251.38-26.05 254.58-22.75 257.78-19.45 257.78-13.7L257.78-13.7 257.78-11.85Q257.78-6.1 254.63-2.8 251.48 0.5 246.03 0.5L246.03 0.5Q240.58 0.5 237.43-2.8 234.28-6.1 234.28-11.85L234.28-11.85 234.28-13.7Q234.28-19.45 237.48-22.75 240.68-26.05 246.03-26.05L246.03-26.05ZM246.03-22.3Q242.68-22.3 240.83-20 238.98-17.7 238.98-13.25L238.98-13.25 238.98-12.3Q238.98-7.95 240.81-5.6 242.63-3.25 246.03-3.25L246.03-3.25Q249.33-3.25 251.21-5.58 253.08-7.9 253.08-12.3L253.08-12.3 253.08-13.25Q253.08-17.6 251.26-19.95 249.43-22.3 246.03-22.3L246.03-22.3ZM274.58-26.05Q279.63-26.05 282.1-24.05 284.58-22.05 284.58-18.25L284.58-18.25 284.58-5Q284.58-4.1 284.98-3.68 285.38-3.25 285.98-3.25L285.98-3.25Q287.13-3.25 288.28-3.95L288.28-3.95 288.28-0.5Q286.58 0.5 284.43 0.5L284.43 0.5Q282.28 0.5 281.23-0.73 280.18-1.95 280.08-4.1L280.08-4.1Q276.98 0.5 271.13 0.5L271.13 0.5Q266.93 0.5 264.85-1.33 262.78-3.15 262.78-7.1L262.78-7.1Q262.78-10.2 264.38-11.98 265.98-13.75 269.68-14.55 273.38-15.35 279.88-15.35L279.88-15.35 279.88-17.7Q279.88-20.25 278.38-21.28 276.88-22.3 274.03-22.3L274.03-22.3Q271.33-22.3 269.83-21.25 268.33-20.2 268.33-18.3L268.33-18.3 268.33-17.7 263.73-17.7Q263.63-18.4 263.63-19.35L263.63-19.35Q263.63-21.1 265.03-22.65 266.43-24.2 268.83-25.13 271.23-26.05 274.13-26.05L274.13-26.05 274.58-26.05ZM279.88-11.7Q274.63-11.7 271.95-11.18 269.28-10.65 268.38-9.6 267.48-8.55 267.48-6.7L267.48-6.7Q267.48-3.25 272.73-3.25L272.73-3.25Q274.58-3.25 276.23-4.17 277.88-5.1 278.88-6.8 279.88-8.5 279.88-10.7L279.88-10.7 279.88-11.7ZM305.28-26.05Q308.83-26.05 310.83-23.78 312.83-21.5 312.83-18.05L312.83-18.05 312.68-16.15 308.53-16.15 308.53-17.25Q308.53-18.75 307.78-19.9 307.03-21.05 305.88-21.68 304.73-22.3 303.58-22.3L303.58-22.3Q301.18-22.3 299.83-20.4 298.48-18.5 298.48-15.25L298.48-15.25 298.48 0 293.78 0 293.78-25.55 297.13-25.55 297.83-21.75Q298.13-22.75 299.18-23.75 300.23-24.75 301.8-25.4 303.38-26.05 305.28-26.05L305.28-26.05ZM339.12-36L339.12 0 335.62 0Q335.27-1.6 334.97-3.5L334.97-3.5Q332.12 0.5 327.07 0.5L327.07 0.5Q322.27 0.5 319.5-3.05 316.72-6.6 316.72-12.8L316.72-12.8 316.72-13.35Q316.72-19.2 319.45-22.63 322.17-26.05 327.07-26.05L327.07-26.05Q331.82-26.05 334.42-22.3L334.42-22.3 334.42-36 339.12-36ZM327.92-22.3Q324.57-22.3 323-19.98 321.42-17.65 321.42-12.75L321.42-12.75Q321.42-7.85 323.02-5.55 324.62-3.25 327.92-3.25L327.92-3.25Q334.47-3.25 334.47-12.75L334.47-12.75Q334.47-17.65 332.82-19.98 331.17-22.3 327.92-22.3L327.92-22.3Z" opacity="1" transform="matrix(1,0,0,1,0,0)" fill="#471aa0" class="wordmark-text-0" data-fill-palette-color="primary" id="text-0"></path></svg></g></svg></g></svg></g></svg></g><g transform="matrix(1,0,0,1,405.7499749533491,0)"><svg viewBox="0 0 59.886754204275526 59.886754204275526" height="59.886754204275526" width="59.886754204275526"><g data-palette-color="#471aa0"><rect width="16.369046149168643" height="59.886754204275526" fill="#471aa0" stroke="transparent" data-fill-palette-color="accent" x="0" fill-opacity="1"></rect><rect width="16.369046149168643" height="59.886754204275526" fill="#471aa0" stroke="transparent" data-fill-palette-color="accent" x="19.962251401425174" fill-opacity="0.75"></rect><rect width="16.369046149168643" height="59.886754204275526" fill="#471aa0" stroke="transparent" data-fill-palette-color="accent" x="39.92450280285035" fill-opacity="0.5"></rect></g></svg></g></svg></g><defs></defs></svg><rect width="395.52" height="50.868858789824685" fill="none" stroke="none" visibility="hidden"></rect></g></svg></g></svg>